<?xml version="1.0" encoding="UTF-8"?>
<!DOCTYPE svg PUBLIC "-//W3C//DTD SVG 1.1//EN" "http://www.w3.org/Graphics/SVG/1.1/DTD/svg11.dtd">
<svg xmlns="http://www.w3.org/2000/svg" version="1.1" width="1152px" height="305px" style="shape-rendering:geometricPrecision; text-rendering:geometricPrecision; image-rendering:optimizeQuality; fill-rule:evenodd; clip-rule:evenodd" xmlns:xlink="http://www.w3.org/1999/xlink">
<g><path style="opacity:1" fill="#49cdcf" d="M 69.5,20.5 C 72.0685,20.5943 73.5685,21.9276 74,24.5C 75.6001,39.8013 76.7668,55.1346 77.5,70.5C 80.3741,89.8002 72.5408,101.8 54,106.5C 42.2533,104.414 34.5867,97.7473 31,86.5C 29.1428,66.4879 29.4762,46.4879 32,26.5C 32.1777,22.5132 34.011,21.1799 37.5,22.5C 37.8333,24.6667 38.1667,26.8333 38.5,29C 36.3028,48.182 36.1361,67.3487 38,86.5C 40.7403,93.8881 46.0736,98.2215 54,99.5C 63.3452,98.1549 68.6785,92.8215 70,83.5C 70.8279,64.765 69.9945,46.0984 67.5,27.5C 67.3187,24.8368 67.9854,22.5034 69.5,20.5 Z"/></g>
<g><path style="opacity:1" fill="#4acecf" d="M 49.5,27.5 C 53.7589,27.1019 55.5922,29.1019 55,33.5C 55.1306,50.519 54.7973,67.519 54,84.5C 55.8318,86.2883 57.9984,87.6216 60.5,88.5C 62.3244,92.1673 61.1577,93.834 57,93.5C 51.4847,92.9872 48.1514,89.9872 47,84.5C 47.1986,71.6706 47.6986,58.8373 48.5,46C 48.4876,40.9202 48.1543,35.9202 47.5,31C 48.305,29.8873 48.9717,28.7206 49.5,27.5 Z"/></g>
<g><path style="opacity:1" fill="#47cdcf" d="M 108.5,180.5 C 108.351,168.148 108.685,155.815 109.5,143.5C 117.792,98.7075 143.792,69.8741 187.5,57C 222.133,48.2737 253.8,54.2737 282.5,75C 286.393,78.39 289.727,82.2233 292.5,86.5C 284.809,92.6916 276.976,98.6916 269,104.5C 247.82,81.1427 221.986,74.3094 191.5,84C 155.53,99.6933 137.53,127.36 137.5,167C 137.511,203.052 153.511,229.052 185.5,245C 220.399,258.067 249.732,250.567 273.5,222.5C 281.64,228.14 289.64,233.973 297.5,240C 273.566,268.545 242.9,280.878 205.5,277C 157.805,269.802 126.472,243.302 111.5,197.5C 109.854,191.937 108.854,186.27 108.5,180.5 Z"/></g>
<g><path style="opacity:1" fill="#47cdcf" d="M 724.5,246.5 C 725.492,254.316 725.826,262.316 725.5,270.5C 709.562,275.542 693.562,275.709 677.5,271C 666.062,264.962 660.062,255.462 659.5,242.5C 660.159,210.482 659.493,178.816 657.5,147.5C 646.833,147.5 636.167,147.5 625.5,147.5C 625.5,139.833 625.5,132.167 625.5,124.5C 636.415,124.82 647.248,124.487 658,123.5C 658.5,109.837 658.667,96.1707 658.5,82.5C 667.418,82.1828 676.251,82.5161 685,83.5C 685.176,97.075 685.676,110.575 686.5,124C 699.496,124.5 712.496,124.667 725.5,124.5C 725.5,132.167 725.5,139.833 725.5,147.5C 712.167,147.5 698.833,147.5 685.5,147.5C 685.333,174.169 685.5,200.835 686,227.5C 685.974,241.974 693.141,249.307 707.5,249.5C 713.321,249.146 718.988,248.146 724.5,246.5 Z"/></g>
<g><path style="opacity:1" fill="#49cdcf" d="M 763.5,85.5 C 767.792,85.0349 771.792,85.8682 775.5,88C 792.835,105.66 800.502,126.994 798.5,152C 798.547,164.365 797.047,176.532 794,188.5C 792.861,192.112 791.194,195.446 789,198.5C 784.154,200.323 782.488,198.656 784,193.5C 788.352,185.741 790.686,177.408 791,168.5C 791.832,155.133 791.499,141.799 790,128.5C 787.485,113.112 780.152,100.778 768,91.5C 767.667,91.8333 767.333,92.1667 767,92.5C 765.939,97.1042 765.273,101.771 765,106.5C 763.058,159.186 763.558,211.853 766.5,264.5C 768.582,264.528 770.416,263.861 772,262.5C 771.222,231.834 771.555,201.167 773,170.5C 774.493,168.44 776.326,168.107 778.5,169.5C 779.502,187.481 779.168,205.481 777.5,223.5C 778.467,236.832 778.967,250.165 779,263.5C 778.727,265.329 777.893,266.829 776.5,268C 772.106,271.259 767.439,271.925 762.5,270C 761.54,268.581 760.707,267.081 760,265.5C 758.645,230.339 757.478,195.173 756.5,160C 756.865,139.147 757.698,118.314 759,97.5C 759.43,93.0377 760.93,89.0377 763.5,85.5 Z"/></g>
<g><path style="opacity:1" fill="#49cdcf" d="M 769.5,103.5 C 772.325,103.081 774.491,104.081 776,106.5C 780.84,112.351 782.84,119.017 782,126.5C 780.522,131.099 779.355,135.766 778.5,140.5C 779.156,146.144 781.656,150.811 786,154.5C 787.167,158.667 785.667,160.167 781.5,159C 774.321,153.147 771.154,145.647 772,136.5C 774.491,130.711 775.491,124.711 775,118.5C 773.503,114.835 771.503,111.502 769,108.5C 768.36,106.735 768.527,105.068 769.5,103.5 Z"/></g>
<g><path style="opacity:1" fill="#48cdcf" d="M 50.5,117.5 C 56.4297,116.341 61.263,118.007 65,122.5C 66.1725,144.491 67.1725,166.491 68,188.5C 69.8443,207.216 72.011,225.883 74.5,244.5C 75.4445,253.431 72.4445,260.598 65.5,266C 57.0921,269.397 50.2588,267.564 45,260.5C 42.8131,254.194 41.6464,247.694 41.5,241C 43.2851,216.509 44.9518,192.009 46.5,167.5C 45.5746,151.832 45.0746,136.165 45,120.5C 46.8761,119.391 48.7095,118.391 50.5,117.5 Z M 51.5,124.5 C 53.7925,124.244 55.9592,124.577 58,125.5C 59.3326,146.149 60.3326,166.816 61,187.5C 62.8803,206.375 65.047,225.209 67.5,244C 67.7932,248.735 66.9599,253.235 65,257.5C 61.205,260.803 57.0383,261.303 52.5,259C 49.7241,253.191 48.3908,247.024 48.5,240.5C 50.1906,216.332 51.8573,192.165 53.5,168C 52.7397,153.504 52.0731,139.004 51.5,124.5 Z"/></g>
<g><path style="opacity:1" fill="#47cdcf" d="M 442.5,262.5 C 442.5,265.5 442.5,268.5 442.5,271.5C 435.167,271.5 427.833,271.5 420.5,271.5C 419.867,264.555 419.2,257.555 418.5,250.5C 406.725,267.555 390.392,275.888 369.5,275.5C 351.003,276.626 336.17,269.959 325,255.5C 311.863,222.563 322.029,200.396 355.5,189C 375.881,184.19 396.548,182.357 417.5,183.5C 419.127,164.57 410.793,152.737 392.5,148C 373.34,144.943 356.84,150.11 343,163.5C 337.5,158 332,152.5 326.5,147C 344.79,131.086 366.123,124.086 390.5,126C 408.618,126.644 423.452,133.811 435,147.5C 438.746,153.323 441.08,159.657 442,166.5C 442.5,198.498 442.667,230.498 442.5,262.5 Z M 387.5,203.5 C 397.5,203.5 407.5,203.5 417.5,203.5C 419.026,241.478 401.026,257.978 363.5,253C 350.371,249.591 344.538,241.091 346,227.5C 347.54,220.968 351.04,215.801 356.5,212C 366.488,207.423 376.822,204.589 387.5,203.5 Z"/></g>
<g><path style="opacity:1" fill="#48cdcf" d="M 551.5,125.5 C 582.531,124.074 601.365,138.407 608,168.5C 608.5,203.165 608.667,237.832 608.5,272.5C 599.833,272.5 591.167,272.5 582.5,272.5C 582.667,243.165 582.5,213.831 582,184.5C 579.248,158.093 564.748,147.259 538.5,152C 523.829,156.672 514.663,166.505 511,181.5C 509.706,211.46 509.039,241.46 509,271.5C 500.333,272.833 491.667,272.833 483,271.5C 482.5,224.168 482.333,176.835 482.5,129.5C 491.5,129.5 500.5,129.5 509.5,129.5C 509.334,136.841 509.5,144.174 510,151.5C 515.745,140.426 524.578,132.926 536.5,129C 541.596,127.64 546.596,126.474 551.5,125.5 Z"/></g>
<g><path style="opacity:1" fill="#48cdcf" d="M 960.5,271.5 C 952.167,271.5 943.833,271.5 935.5,271.5C 935.667,241.165 935.5,210.832 935,180.5C 934.902,177.478 934.068,174.811 932.5,172.5C 927.153,158.012 916.653,150.679 901,150.5C 878.323,152.508 865.323,164.841 862,187.5C 861.667,215.5 861.333,243.5 861,271.5C 852.579,272.649 844.079,272.816 835.5,272C 834.503,224.572 834.17,177.072 834.5,129.5C 843.5,129.5 852.5,129.5 861.5,129.5C 861.334,136.841 861.5,144.174 862,151.5C 867.898,140.622 876.731,133.122 888.5,129C 907.142,123.046 924.808,125.046 941.5,135C 954.749,146.391 961.249,160.891 961,178.5C 961.831,209.669 961.664,240.669 960.5,271.5 Z"/></g>
<g><path style="opacity:1" fill="#47cdcf" d="M 1118.5,170.5 C 1118.5,204.167 1118.5,237.833 1118.5,271.5C 1111.5,271.5 1104.5,271.5 1097.5,271.5C 1096.18,264.704 1095.35,257.704 1095,250.5C 1080.3,270.743 1060.46,278.91 1035.5,275C 1004.79,269.412 991.961,251.246 997,220.5C 1003.14,203.694 1014.98,193.194 1032.5,189C 1052.88,184.133 1073.54,182.3 1094.5,183.5C 1095.53,164.386 1086.86,152.553 1068.5,148C 1049.5,145.335 1033,150.502 1019,163.5C 1013.95,157.905 1008.78,152.405 1003.5,147C 1019.68,132.658 1038.68,125.491 1060.5,125.5C 1080.65,124.819 1097.48,131.819 1111,146.5C 1115.82,153.798 1118.32,161.798 1118.5,170.5 Z M 1064.5,203.5 C 1074.5,203.5 1084.5,203.5 1094.5,203.5C 1095.84,241.305 1077.84,257.805 1040.5,253C 1026.23,249.304 1020.4,240.137 1023,225.5C 1024.62,219.543 1028.12,215.043 1033.5,212C 1043.45,207.319 1053.78,204.485 1064.5,203.5 Z"/></g>
<g><path style="opacity:1" fill="#55d0d2" d="M 657.5,147.5 C 659.493,178.816 660.159,210.482 659.5,242.5C 658.826,210.931 658.16,179.264 657.5,147.5 Z"/></g>
<g><path style="opacity:1" fill="#5dd3d4" d="M 109.5,143.5 C 108.685,155.815 108.351,168.148 108.5,180.5C 107.834,175.678 107.501,170.678 107.5,165.5C 107.321,157.938 107.988,150.605 109.5,143.5 Z"/></g>
<g><path style="opacity:1" fill="#74d9db" d="M 1118.5,170.5 C 1119.5,204.329 1119.83,238.329 1119.5,272.5C 1111.98,272.825 1104.65,272.492 1097.5,271.5C 1104.5,271.5 1111.5,271.5 1118.5,271.5C 1118.5,237.833 1118.5,204.167 1118.5,170.5 Z"/></g>
<g><path style="opacity:1" fill="#5dd3d5" d="M 932.5,172.5 C 934.068,174.811 934.902,177.478 935,180.5C 935.5,210.832 935.667,241.165 935.5,271.5C 943.833,271.5 952.167,271.5 960.5,271.5C 952.016,272.493 943.349,272.826 934.5,272.5C 934.667,242.165 934.5,211.832 934,181.5C 933.498,178.487 932.998,175.487 932.5,172.5 Z"/></g>
<g><path style="opacity:1" fill="#66d4d5" d="M 724.5,246.5 C 724.56,245.957 724.893,245.624 725.5,245.5C 726.821,253.991 726.821,262.324 725.5,270.5C 725.826,262.316 725.492,254.316 724.5,246.5 Z"/></g>
<g><path style="opacity:1" fill="#71d8da" d="M 442.5,262.5 C 443.479,265.625 443.813,268.958 443.5,272.5C 435.648,272.825 427.982,272.492 420.5,271.5C 427.833,271.5 435.167,271.5 442.5,271.5C 442.5,268.5 442.5,265.5 442.5,262.5 Z"/></g>
</svg>
